<svg xmlns="http://www.w3.org/2000/svg" height="200" width="200" viewBox="0 0 24 24">
  <defs>
    <linearGradient id="logoGradient" x1="0%" y1="0%" x2="100%" y2="100%">
      <stop offset="0%" style="stop-color:#2196F3"/>
      <stop offset="100%" style="stop-color:#00BCD4"/>
    </linearGradient>
  </defs>
  <path fill="url(#logoGradient)" d="M12,2A10,10 0 0,0 2,12A10,10 0 0,0 12,22A10,10 0 0,0 22,12A10,10 0 0,0 12,2M12,4A8,8 0 0,1 20,12A8,8 0 0,1 12,20A8,8 0 0,1 4,12A8,8 0 0,1 12,4M12,6A6,6 0 0,0 6,12A6,6 0 0,0 12,18A6,6 0 0,0 18,12A6,6 0 0,0 12,6"/>
</svg> 