<svg xmlns="http://www.w3.org/2000/svg" height="48" width="48" viewBox="0 0 24 24">
  <path fill="#000000" d="M19,12C19,12.34 18.97,12.67 18.92,13H21C21.55,13 22,13.45 22,14V15C22,15.55 21.55,16 21,16H19.92C19.97,16.33 20,16.66 20,17C20,17.34 19.97,17.67 19.92,18H22C22.55,18 23,18.45 23,19V20C23,20.55 22.55,21 22,21H19.92C19.97,21.33 20,21.66 20,22H18C18,21.66 18.03,21.33 18.08,21H16.08C16.03,21.33 16,21.66 16,22H14C14,21.66 14.03,21.33 14.08,21H12.08C12.03,21.33 12,21.66 12,22H10C10,21.66 10.03,21.33 10.08,21H8.08C8.03,21.33 8,21.66 8,22H6C6,21.66 6.03,21.33 6.08,21H4.08C4.03,21.33 4,21.66 4,22H2C2,21.66 2.03,21.33 2.08,21H0V19H2.08C2.03,18.67 2,18.34 2,18C2,17.66 2.03,17.33 2.08,17H0V15H2.08C2.03,14.67 2,14.34 2,14C2,13.66 2.03,13.33 2.08,13H0V11H2.08C2.03,10.67 2,10.34 2,10C2,9.66 2.03,9.33 2.08,9H0V7H2.08C2.03,6.67 2,6.34 2,6C2,5.66 2.03,5.33 2.08,5H0V3H2.08C2.03,2.67 2,2.34 2,2H4C4,2.34 4.03,2.67 4.08,3H6.08C6.03,2.67 6,2.34 6,2H8C8,2.34 8.03,2.67 8.08,3H10.08C10.03,2.67 10,2.34 10,2H12C12,2.34 12.03,2.67 12.08,3H14.08C14.03,2.67 14,2.34 14,2H16C16,2.34 16.03,2.67 16.08,3H18.08C18.03,2.67 18,2.34 18,2H20C20,2.34 20.03,2.67 20.08,3H22V5H20.08C20.03,5.33 20,5.66 20,6C20,6.34 20.03,6.67 20.08,7H22V9H20.08C20.03,9.33 20,9.66 20,10C20,10.34 20.03,10.67 20.08,11H22V13H19.92C19.97,12.67 20,12.34 20,12H18Z"/>
</svg> 