<svg xmlns="http://www.w3.org/2000/svg" height="48" width="48" viewBox="0 0 24 24">
  <defs>
    <linearGradient id="primaryGradient" x1="0%" y1="0%" x2="100%" y2="100%">
      <stop offset="0%" style="stop-color:#2196F3"/>
      <stop offset="100%" style="stop-color:#1976D2"/>
    </linearGradient>
  </defs>
  <path fill="url(#primaryGradient)" d="M9,22H17V19.5C19.41,17.87 21,15.12 21,12V4A2,2 0 0,0 19,2H15C13.89,2 13,2.9 13,4V12H3C3,15.09 5,18 9,19.5V22M5.29,14H18.71C18.14,15.91 16.77,17.5 15,18.33V20H11V18.33C9,17.37 7.47,15.73 7.03,14H5.29M11,4V6H13V4H15V10H13V8H11V10H9V4H11M19,4V8H17V4H19Z"/>
</svg> 